<svg width="1392" height="164" viewBox="0 0 1392 164" fill="none" xmlns="http://www.w3.org/2000/svg">
<g clip-path="url(#clip0_2996_9465)">
<g style="mix-blend-mode:difference">
<path d="M1387.09 72.8578L1366.52 76.4086C1365.19 72.5097 1362.72 68.9241 1359.1 65.6519C1355.55 62.3796 1350.23 60.7435 1343.12 60.7435C1336.72 60.7435 1331.36 62.2056 1327.04 65.1297C1322.79 67.9842 1320.67 71.6394 1320.67 76.0953C1320.67 79.9941 1322.1 83.162 1324.95 85.5987C1327.88 88.0355 1332.51 89.985 1338.84 91.447L1357.54 95.6244C1368.19 98.0612 1376.16 101.89 1381.45 107.112C1386.74 112.334 1389.39 119.018 1389.39 127.163C1389.39 134.195 1387.37 140.461 1383.33 145.961C1379.29 151.392 1373.69 155.674 1366.52 158.807C1359.35 161.87 1351.06 163.402 1341.66 163.402C1328.57 163.402 1317.92 160.582 1309.71 154.943C1301.49 149.303 1296.44 141.366 1294.56 131.132L1316.39 127.79C1317.78 133.499 1320.6 137.816 1324.85 140.74C1329.16 143.664 1334.73 145.126 1341.56 145.126C1348.94 145.126 1354.86 143.56 1359.31 140.426C1363.84 137.293 1366.1 133.499 1366.1 129.043C1366.1 121.663 1360.6 116.685 1349.6 114.109L1329.86 109.723C1318.93 107.217 1310.85 103.283 1305.63 97.9219C1300.48 92.4914 1297.9 85.6684 1297.9 77.4529C1297.9 70.5603 1299.82 64.5031 1303.65 59.2814C1307.55 54.0597 1312.87 50.0216 1319.63 47.1671C1326.45 44.243 1334.21 42.7809 1342.92 42.7809C1355.59 42.7809 1365.51 45.531 1372.68 51.0312C1379.92 56.5313 1384.72 63.8069 1387.09 72.8578Z" fill="white"/>
</g>
<g style="mix-blend-mode:difference">
<path d="M1228.87 163.402C1217.94 163.402 1208.37 160.896 1200.15 155.883C1192.01 150.87 1185.67 143.838 1181.14 134.787C1176.69 125.736 1174.46 115.223 1174.46 103.248C1174.46 91.1337 1176.69 80.5511 1181.14 71.5002C1185.67 62.3796 1192.01 55.3129 1200.15 50.3001C1208.37 45.2873 1217.94 42.7809 1228.87 42.7809C1239.87 42.7809 1249.44 45.2873 1257.59 50.3001C1265.74 55.3129 1272.07 62.3796 1276.6 71.5002C1281.12 80.5511 1283.39 91.1337 1283.39 103.248C1283.39 115.223 1281.12 125.736 1276.6 134.787C1272.07 143.838 1265.74 150.87 1257.59 155.883C1249.44 160.896 1239.87 163.402 1228.87 163.402ZM1228.87 144.291C1236.04 144.291 1241.96 142.411 1246.62 138.651C1251.29 134.892 1254.74 129.913 1256.96 123.717C1259.26 117.451 1260.41 110.628 1260.41 103.248C1260.41 95.7288 1259.26 88.8362 1256.96 82.5702C1254.74 76.3041 1251.29 71.2913 1246.62 67.5317C1241.96 63.7721 1236.04 61.8923 1228.87 61.8923C1221.77 61.8923 1215.89 63.7721 1211.22 67.5317C1206.63 71.2913 1203.18 76.3041 1200.88 82.5702C1198.59 88.8362 1197.44 95.7288 1197.44 103.248C1197.44 110.628 1198.59 117.451 1200.88 123.717C1203.18 129.913 1206.63 134.892 1211.22 138.651C1215.89 142.411 1221.77 144.291 1228.87 144.291Z" fill="white"/>
</g>
<g style="mix-blend-mode:difference">
<path d="M1135.61 161V44.2429H1158.17V161H1135.61ZM1146.99 26.2803C1143.03 26.2803 1139.65 24.9575 1136.86 22.3118C1134.08 19.6661 1132.69 16.4983 1132.69 12.8083C1132.69 9.04871 1134.08 5.84608 1136.86 3.20042C1139.65 0.554762 1143.03 -0.768066 1146.99 -0.768066C1150.89 -0.768066 1154.24 0.554762 1157.02 3.20042C1159.88 5.84608 1161.3 9.04871 1161.3 12.8083C1161.3 16.4983 1159.88 19.6661 1157.02 22.3118C1154.24 24.9575 1150.89 26.2803 1146.99 26.2803Z" fill="white"/>
</g>
<g style="mix-blend-mode:difference">
<path d="M1056.24 163.297C1046.77 163.297 1038.35 160.896 1030.97 156.092C1023.59 151.218 1017.81 144.291 1013.63 135.309C1009.46 126.258 1007.37 115.467 1007.37 102.935C1007.37 90.2634 1009.49 79.4371 1013.74 70.4558C1017.98 61.4745 1023.8 54.6167 1031.18 49.8824C1038.56 45.148 1046.91 42.7809 1056.24 42.7809C1063.55 42.7809 1069.4 43.9993 1073.79 46.436C1078.24 48.8032 1081.69 51.5881 1084.13 54.7907C1086.63 57.9934 1088.55 60.8131 1089.87 63.2499H1091.23V5.39355H1113.79V161H1091.75V142.828H1089.87C1088.55 145.265 1086.6 148.085 1084.02 151.288C1081.45 154.49 1077.93 157.31 1073.47 159.747C1069.09 162.114 1063.34 163.297 1056.24 163.297ZM1061.15 143.977C1067.7 143.977 1073.23 142.237 1077.76 138.756C1082.28 135.274 1085.69 130.436 1087.99 124.239C1090.36 118.043 1091.54 110.872 1091.54 102.726C1091.54 94.58 1090.39 87.4785 1088.09 81.4214C1085.8 75.2946 1082.39 70.5603 1077.86 67.2184C1073.33 63.8069 1067.76 62.1011 1061.15 62.1011C1054.33 62.1011 1048.65 63.8765 1044.13 67.4272C1039.6 70.978 1036.19 75.8168 1033.89 81.9435C1031.6 88.0703 1030.45 94.9978 1030.45 102.726C1030.45 110.524 1031.6 117.555 1033.89 123.821C1036.19 130.018 1039.6 134.926 1044.13 138.547C1048.72 142.167 1054.4 143.977 1061.15 143.977Z" fill="white"/>
</g>
<g style="mix-blend-mode:difference">
<path d="M968.517 112.752V44.2429H991.075V161H968.935V140.74H967.682C964.897 146.936 960.58 152.123 954.732 156.3C948.884 160.478 941.573 162.532 932.801 162.462C925.282 162.462 918.633 160.826 912.854 157.554C907.145 154.281 902.654 149.373 899.382 142.828C896.179 136.284 894.578 128.173 894.578 118.495V44.2429H917.136V115.885C917.136 123.752 919.364 130.053 923.82 134.787C928.275 139.521 934.019 141.854 941.051 141.784C945.298 141.784 949.51 140.74 953.688 138.651C957.935 136.562 961.451 133.36 964.235 129.043C967.09 124.727 968.517 119.296 968.517 112.752Z" fill="white"/>
</g>
<g style="mix-blend-mode:difference">
<path d="M878.291 44.2429V62.5188H814.586V44.2429H878.291ZM831.609 16.4635H854.271V126.746C854.271 132.107 855.385 136.04 857.613 138.547C859.841 140.983 863.426 142.202 868.369 142.202C869.553 142.202 870.806 142.132 872.129 141.993C873.521 141.854 874.914 141.645 876.306 141.366L880.588 160.164C878.291 160.93 875.784 161.522 873.069 161.94C870.354 162.358 867.638 162.566 864.923 162.566C854.828 162.566 846.752 159.747 840.694 154.107C834.637 148.398 831.609 140.809 831.609 131.341V16.4635Z" fill="white"/>
</g>
<g style="mix-blend-mode:difference">
<path d="M749.102 163.506C737.475 163.506 727.38 161.696 718.816 158.076C710.322 154.386 703.673 149.129 698.87 142.306C694.066 135.483 691.385 127.372 690.828 117.973H714.43C714.918 123.613 716.728 128.312 719.861 132.072C723.063 135.762 727.206 138.512 732.288 140.322C737.371 142.132 742.941 143.037 748.998 143.037C755.612 143.037 761.53 141.993 766.751 139.904C771.973 137.816 776.046 134.891 778.97 131.132C781.964 127.303 783.461 122.847 783.461 117.764C783.461 113.169 782.138 109.41 779.492 106.485C776.916 103.561 773.4 101.159 768.945 99.2795C764.489 97.33 759.476 95.6243 753.906 94.1622L735.63 89.1494C723.098 85.8075 713.212 80.8295 705.971 74.2154C698.73 67.5316 695.11 58.794 695.11 48.0025C695.11 39.0212 697.512 31.1886 702.316 24.5049C707.189 17.8211 713.769 12.6342 722.054 8.94424C730.409 5.18462 739.773 3.30481 750.146 3.30481C760.729 3.30481 770.024 5.18462 778.03 8.94424C786.107 12.6342 792.477 17.7167 797.142 24.1916C801.876 30.5968 804.348 37.942 804.557 46.2271H781.79C780.955 39.056 777.613 33.4862 771.764 29.5177C765.986 25.5492 758.606 23.565 749.624 23.565C743.358 23.565 737.858 24.5745 733.124 26.5935C728.459 28.543 724.839 31.2583 722.263 34.7394C719.756 38.2205 718.503 42.2238 718.503 46.7493C718.503 51.6229 720 55.5913 722.994 58.6547C726.057 61.7181 729.747 64.1549 734.064 65.9651C738.45 67.7057 742.662 69.1329 746.7 70.2469L761.843 74.3198C766.786 75.573 771.869 77.2439 777.09 79.3326C782.312 81.4213 787.151 84.1714 791.607 87.5829C796.132 90.9248 799.753 95.1021 802.468 100.115C805.253 105.058 806.645 111.046 806.645 118.078C806.645 126.78 804.382 134.578 799.857 141.471C795.332 148.294 788.787 153.689 780.223 157.658C771.66 161.557 761.286 163.506 749.102 163.506Z" fill="white"/>
</g>
<g style="mix-blend-mode:difference">
<path d="M568.328 163.506C560.948 163.506 554.264 162.149 548.276 159.433C542.289 156.649 537.554 152.61 534.073 147.319C530.592 142.028 528.852 135.588 528.852 127.999C528.852 121.385 530.105 115.989 532.611 111.812C535.187 107.565 538.634 104.188 542.95 101.682C547.267 99.1751 552.071 97.2953 557.362 96.0421C562.653 94.7889 568.084 93.8142 573.654 93.118C580.686 92.3521 586.36 91.6907 590.676 91.1337C594.993 90.5768 598.126 89.7065 600.075 88.5229C602.094 87.2697 603.104 85.2854 603.104 82.5702V82.048C603.104 75.4339 601.224 70.3166 597.465 66.6962C593.775 63.0759 588.274 61.2657 580.964 61.2657C573.375 61.2657 567.353 62.9366 562.897 66.2785C558.511 69.5508 555.482 73.2756 553.811 77.4529L532.402 72.5445C534.978 65.443 538.703 59.734 543.577 55.4174C548.52 51.0312 554.159 47.8285 560.495 45.8095C566.9 43.7904 573.584 42.7809 580.546 42.7809C585.211 42.7809 590.154 43.3379 595.376 44.4518C600.598 45.4962 605.506 47.4804 610.101 50.4046C614.766 53.2591 618.56 57.3668 621.484 62.7277C624.409 68.0887 625.871 75.0161 625.871 83.5101V161H603.626V145.022H602.791C601.398 147.876 599.205 150.731 596.211 153.585C593.287 156.44 589.528 158.807 584.933 160.687C580.337 162.566 574.802 163.506 568.328 163.506ZM573.236 145.335C579.572 145.335 584.967 144.116 589.423 141.68C593.879 139.173 597.291 135.901 599.658 131.863C602.025 127.825 603.208 123.543 603.208 119.018V103.875C602.373 104.641 600.806 105.372 598.509 106.068C596.211 106.764 593.601 107.356 590.676 107.843C587.752 108.331 584.898 108.783 582.113 109.201C579.328 109.549 576.996 109.827 575.116 110.036C570.73 110.663 566.726 111.638 563.106 112.96C559.485 114.214 556.561 116.093 554.333 118.6C552.175 121.037 551.096 124.274 551.096 128.312C551.096 133.952 553.185 138.199 557.362 141.053C561.539 143.908 566.831 145.335 573.236 145.335Z" fill="white"/>
</g>
<g style="mix-blend-mode:difference">
<path d="M490.213 161V44.2429H512.771V161H490.213ZM501.596 26.2803C497.628 26.2803 494.251 24.9575 491.466 22.3118C488.681 19.6661 487.289 16.4983 487.289 12.8083C487.289 9.04871 488.681 5.84608 491.466 3.20042C494.251 0.554762 497.628 -0.768066 501.596 -0.768066C505.495 -0.768066 508.837 0.554762 511.622 3.20042C514.477 5.84608 515.904 9.04871 515.904 12.8083C515.904 16.4983 514.477 19.6661 511.622 22.3118C508.837 24.9575 505.495 26.2803 501.596 26.2803Z" fill="white"/>
</g>
<g style="mix-blend-mode:difference">
<path d="M416.898 161V44.243H438.725V62.9366H439.978C442.137 56.6706 445.896 51.7274 451.257 48.107C456.688 44.417 462.815 42.572 469.638 42.572C471.03 42.572 472.666 42.6416 474.546 42.7809C476.495 42.8505 478.062 42.9549 479.245 43.0942V64.8164C478.34 64.5379 476.704 64.2594 474.337 63.981C472.039 63.7025 469.707 63.5632 467.34 63.5632C461.979 63.5632 457.175 64.712 452.928 67.0095C448.751 69.2375 445.444 72.3357 443.007 76.3041C440.64 80.203 439.456 84.7285 439.456 89.8805V161H416.898Z" fill="white"/>
</g>
<g style="mix-blend-mode:difference">
<path d="M350.999 163.402C339.581 163.402 329.695 160.93 321.34 155.987C312.985 151.044 306.545 144.082 302.02 135.1C297.564 126.049 295.336 115.502 295.336 103.457C295.336 91.4819 297.529 80.934 301.915 71.8135C306.371 62.6929 312.602 55.5914 320.609 50.509C328.685 45.3569 338.154 42.7809 349.015 42.7809C355.629 42.7809 362.034 43.86 368.231 46.0183C374.427 48.1766 379.997 51.5881 384.94 56.2528C389.883 60.9176 393.782 66.9747 396.637 74.4243C399.561 81.8739 401.023 90.8552 401.023 101.368V109.514H308.181V92.4914H389.326L378.779 98.1308C378.779 90.9597 377.665 84.624 375.437 79.1239C373.209 73.6237 369.867 69.3419 365.411 66.2785C361.025 63.1455 355.559 61.579 349.015 61.579C342.47 61.579 336.866 63.1455 332.201 66.2785C327.606 69.4115 324.09 73.554 321.653 78.7061C319.216 83.8582 317.998 89.4976 317.998 95.6244V107.217C317.998 115.223 319.391 122.011 322.175 127.581C324.96 133.151 328.824 137.398 333.768 140.322C338.78 143.246 344.594 144.708 351.208 144.708C355.525 144.708 359.423 144.082 362.905 142.828C366.455 141.575 369.519 139.695 372.095 137.189C374.671 134.683 376.62 131.584 377.943 127.894L399.456 131.967C397.716 138.233 394.652 143.734 390.266 148.468C385.88 153.202 380.345 156.892 373.661 159.538C367.047 162.114 359.493 163.402 350.999 163.402Z" fill="white"/>
</g>
<g style="mix-blend-mode:difference">
<path d="M285.728 44.2429V62.5188H222.023V44.2429H285.728ZM239.046 16.4635H261.708V126.746C261.708 132.107 262.822 136.04 265.05 138.547C267.278 140.983 270.864 142.202 275.807 142.202C276.99 142.202 278.244 142.132 279.566 141.993C280.959 141.854 282.351 141.645 283.744 141.366L288.026 160.164C285.728 160.93 283.222 161.522 280.506 161.94C277.791 162.358 275.076 162.566 272.361 162.566C262.265 162.566 254.189 159.747 248.132 154.107C242.075 148.398 239.046 140.809 239.046 131.341V16.4635Z" fill="white"/>
</g>
<g style="mix-blend-mode:difference">
<path d="M151.43 161V44.243H173.256V62.9366H174.51C176.668 56.6706 180.427 51.7274 185.788 48.107C191.219 44.417 197.346 42.572 204.169 42.572C205.561 42.572 207.197 42.6416 209.077 42.7809C211.027 42.8505 212.593 42.9549 213.777 43.0942V64.8164C212.872 64.5379 211.235 64.2594 208.868 63.981C206.571 63.7025 204.238 63.5632 201.871 63.5632C196.51 63.5632 191.706 64.712 187.459 67.0095C183.282 69.2375 179.975 72.3357 177.538 76.3041C175.171 80.203 173.987 84.7285 173.987 89.8805V161H151.43Z" fill="white"/>
</g>
<g style="mix-blend-mode:difference">
<path d="M25.7956 161H0.835938L56.8125 5.39355H83.9652L139.837 161H114.982L70.911 33.6951H69.6578L25.7956 161ZM29.973 100.115H110.7V119.749H29.973V100.115Z" fill="white"/>
</g>
</g>
<defs>
<clipPath id="clip0_2996_9465">
<rect width="1392" height="164" fill="white"/>
</clipPath>
</defs>
</svg>
